<?xml version="1.0" encoding="iso-8859-1"?>
<!-- Generator: Adobe Illustrator 19.0.0, SVG Export Plug-In . SVG Version: 6.00 Build 0)  -->
<svg version="1.1" id="Capa_1" xmlns="http://www.w3.org/2000/svg" xmlns:xlink="http://www.w3.org/1999/xlink" x="0px" y="0px"
	 viewBox="0 0 512 512" style="enable-background:new 0 0 512 512;" xml:space="preserve">
<path style="fill:#FD3018;" d="M453.733,229.122c-2.577,0-5.141-0.659-7.439-1.977l-117.287-67.013
	c-5.975-3.412-8.86-10.441-7-17.06C341.162,74.594,395.962,19.933,465.025,3.62l13.209-3.119c4.804-1.201,9.899,0.161,13.56,3.515
	c3.661,3.339,5.434,8.274,4.745,13.18l-27.956,199.04c-0.703,4.921-3.793,9.167-8.26,11.364
	C458.243,228.609,455.987,229.122,453.733,229.122z"/>
<path style="fill:#FEC478;" d="M354.399,140.098l87.588,50.04l21.732-155.165C412.86,49.778,372.192,90.219,354.399,140.098z"/>
<path style="fill:#EB4F00;" d="M62.192,223.337c-2.929,0-5.828-0.864-8.318-2.519c-3.529-2.357-5.901-6.092-6.517-10.295
	L19.225,17.268c-0.718-4.906,1.025-9.855,4.672-13.209c3.646-3.368,8.816-4.628,13.546-3.588l11.745,2.724
	c80.881,18.745,142.201,89.221,151.104,172.402c0.791,7.41-4.983,14.278-12.203,16.124L65.897,222.869
	C64.681,223.191,63.436,223.337,62.192,223.337z"/>
<g>
	<path style="fill:#FEDBAB;" d="M52.145,34.987L74.61,189.699l92.992-23.709C156.224,104.659,111.573,52.663,52.145,34.987z"/>
	<path style="fill:#FEDBAB;" d="M468.741,212.012l-50.085-29.992H93.344l-50.085,29.992C12.666,260.598-2.63,318.482,0.371,377.867
		c0.601,6.297,4.798,11.696,10.797,13.495c2.4,0.601,4.199,0.901,8.399,0.901c94.773,4.498,150.058,51.585,178.851,90.275
		c13.795,18.295,34.789,29.091,57.583,29.091c22.794,0,43.789-10.797,57.583-29.091c63.882-86.076,143.76-88.777,173.452-89.675
		c6.599-0.3,10.198-0.601,13.797-1.501c5.998-1.799,10.196-7.198,10.797-13.495C514.629,318.482,499.333,260.598,468.741,212.012z"
		/>
</g>
<path style="fill:#FEC478;" d="M511.629,377.867c-0.601,6.297-4.798,11.696-10.797,13.495c-3.599,0.901-7.198,1.201-13.797,1.501
	c-29.692,0.899-109.57,3.599-173.452,89.675c-13.795,18.295-34.789,29.091-57.583,29.091V182.02h162.655l50.085,29.992
	C499.333,260.598,514.629,318.482,511.629,377.867z"/>
<path style="fill:#FF6200;" d="M468.741,212.012h-50.085c-51.587,0-96.075,36.889-104.471,87.575l-13.196,116.668l-14.996,13.196
	h-59.983l-14.996-13.196l-13.196-117.267c-8.397-50.087-52.884-86.977-104.471-86.977H43.259
	c6.597-10.496,14.095-20.394,22.194-29.992c3.299-3.599,6.299-7.498,9.597-11.097C123.036,119.936,187.918,92.044,256,92.044
	s132.964,27.892,180.95,78.878c3.299,3.599,6.299,7.498,9.597,11.097C454.646,191.618,462.143,201.515,468.741,212.012z"/>
<path style="fill:#EB4F00;" d="M468.741,212.012h-50.085c-51.587,0-96.075,36.889-104.471,87.575l-13.196,116.668l-14.996,13.196
	H256V92.045c68.082,0,132.964,27.892,180.95,78.878c3.299,3.599,6.299,7.498,9.597,11.097
	C454.646,191.618,462.143,201.515,468.741,212.012z"/>
<circle style="fill:#57555C;" cx="135.033" cy="286.991" r="14.996"/>
<circle style="fill:#3C3A41;" cx="376.966" cy="286.991" r="14.996"/>
<g>
	<path style="fill:#896748;" d="M270.995,451.946v44.988c0,8.399-6.597,14.996-14.996,14.996c-8.399,0-14.996-6.597-14.996-14.996
		v-44.988c0-8.399,6.597-14.996,14.996-14.996C264.398,436.95,270.995,443.548,270.995,451.946z"/>
	<path style="fill:#896748;" d="M255.999,369.468c-24.894,0-44.988,20.093-44.988,44.988c0,3.299,1.199,6.597,3.299,9.297
		l29.992,37.49c2.7,3.599,7.198,5.698,11.697,5.698s8.998-2.099,11.697-5.698l29.992-37.49c2.099-2.7,3.299-5.998,3.299-9.297
		C300.987,389.563,280.893,369.468,255.999,369.468z"/>
</g>
<g>
	<path style="fill:#73553A;" d="M270.995,451.946v44.988c0,8.399-6.597,14.996-14.996,14.996V436.95
		C264.398,436.95,270.995,443.548,270.995,451.946z"/>
	<path style="fill:#73553A;" d="M300.987,414.456c0,3.299-1.199,6.597-3.299,9.297l-29.992,37.49
		c-2.7,3.599-7.198,5.698-11.697,5.698v-97.473C280.893,369.468,300.987,389.563,300.987,414.456z"/>
</g>
<g>
</g>
<g>
</g>
<g>
</g>
<g>
</g>
<g>
</g>
<g>
</g>
<g>
</g>
<g>
</g>
<g>
</g>
<g>
</g>
<g>
</g>
<g>
</g>
<g>
</g>
<g>
</g>
<g>
</g>
</svg>
